<svg width="39" height="39" viewBox="0 0 39 39" fill="none" xmlns="http://www.w3.org/2000/svg">
<rect opacity="0.2" y="0.000244141" width="38.9082" height="38.9082" rx="19.4541" fill="#0B8297"/>
<path d="M28.4767 20.0777C28.4767 24.8513 24.9736 28.8164 20.3925 29.5093V22.8494H22.6253L23.0488 20.0777H20.3925V18.3069C20.3925 17.537 20.7775 16.8055 21.9709 16.8055H23.1643V14.4573C23.1643 14.4573 22.0864 14.2648 21.0085 14.2648C18.8527 14.2648 17.4283 15.6122 17.4283 17.9989V20.0777H15.0031V22.8494H17.4283V29.5093C12.8473 28.8164 9.38263 24.8513 9.38263 20.0777C9.38263 14.8037 13.6557 10.5307 18.9297 10.5307C24.2037 10.5307 28.4767 14.8037 28.4767 20.0777Z" fill="#0B8297"/>
</svg>
