<svg width="36" height="29" viewBox="0 0 36 29" fill="none" xmlns="http://www.w3.org/2000/svg">
<path d="M25.5447 5C26.2226 5 26.734 5.61218 26.4605 6.75084L23.1421 22.8512C22.9102 23.996 22.2382 24.2715 21.3105 23.7389L13.3951 17.7211C13.3644 17.6985 13.3394 17.6686 13.3222 17.634C13.3049 17.5994 13.2959 17.5611 13.2959 17.5222C13.2959 17.4833 13.3049 17.445 13.3222 17.4104C13.3394 17.3758 13.3644 17.3459 13.3951 17.3232L17.9653 13.0747L22.5355 8.82613C22.9518 8.44658 22.4463 8.26293 21.8992 8.60575L10.4276 16.056C10.3928 16.0794 10.3533 16.0943 10.3121 16.0996C10.2709 16.1049 10.2291 16.1004 10.1898 16.0866L5.31924 14.5011C4.2369 14.1766 4.2369 13.4114 5.56306 12.8665L25.0511 5.12856C25.2056 5.05223 25.3734 5.00852 25.5447 5Z" fill="white" stroke="#F3F3F3" stroke-opacity="0.8" stroke-width="1.19645" stroke-linecap="round" stroke-linejoin="round"/>
</svg>
