<svg width="27" height="29" viewBox="0 0 27 29" fill="none" xmlns="http://www.w3.org/2000/svg">
<path d="M6.5634 5.35213L15.5505 5.35213C15.5506 5.35213 15.5508 5.35213 15.5509 5.35213C18.1204 5.35236 20.2031 7.43491 20.2031 10.0043L20.2031 18.9914C20.2031 21.561 18.1201 23.644 15.5505 23.644L6.56382 23.644C3.99415 23.644 1.91121 21.5614 1.91121 18.9918L1.91121 10.0043C1.91121 7.4351 3.99383 5.35213 6.5634 5.35213Z" stroke="#F3F3F3" stroke-opacity="0.8" stroke-width="1.19645"/>
<path d="M15.5509 4.75391L6.56341 4.75391C3.66341 4.75391 1.31299 7.10474 1.31299 10.0043L1.31299 18.9918C1.31299 21.8918 3.66382 24.2422 6.56382 24.2422L15.5505 24.2422C18.4505 24.2422 20.8013 21.8914 20.8013 18.9914L20.8013 10.0043C20.8013 7.10432 18.4509 4.75391 15.5509 4.75391Z" fill="white" stroke="#F3F3F3" stroke-opacity="0.8" stroke-width="0.398816" stroke-miterlimit="10"/>
<path d="M15.7636 14.5003C15.7636 17.0983 13.6574 19.2045 11.0594 19.2045C8.46135 19.2045 6.35522 17.0983 6.35522 14.5003C6.35522 11.9023 8.46135 9.79614 11.0594 9.79614C13.6574 9.79614 15.7636 11.9023 15.7636 14.5003Z" fill="#0B8297" stroke="#F3F3F3" stroke-opacity="0.8" stroke-width="1.19645" stroke-miterlimit="10"/>
<path d="M16.7718 9.80197C17.3285 9.80197 17.7797 9.35071 17.7797 8.79405C17.7797 8.23739 17.3285 7.78613 16.7718 7.78613C16.2152 7.78613 15.7639 8.23739 15.7639 8.79405C15.7639 9.35071 16.2152 9.80197 16.7718 9.80197Z" fill="#0B8297"/>
</svg>
