<svg width="32" height="25" viewBox="0 0 32 25" fill="none" xmlns="http://www.w3.org/2000/svg">
<path d="M22.059 22H17.0591V14.5H19.484L20.1215 11.9999H17.0591V8.99992C17.0591 8.17155 17.7306 7.49992 18.5591 7.49992H20.0591V4.99999H18.5591C16.3514 5.00347 14.5625 6.79222 14.559 8.99992V11.9999H12.0591V14.5H14.559V22H7.05901C5.6784 22 4.55908 20.8807 4.55908 19.4999V4.49993C4.55908 3.11932 5.6784 2 7.05901 2H22.059C23.4398 2 24.5591 3.11932 24.5591 4.49993V19.4999C24.5591 20.8807 23.4398 22 22.059 22ZM18.059 20.9999H22.059C22.8875 20.9999 23.559 20.3284 23.559 19.4999V4.49993C23.559 3.67156 22.8875 2.99994 22.059 2.99994H7.05901C6.23065 2.99994 5.55902 3.67156 5.55902 4.49993V19.4999C5.55902 20.3284 6.23065 20.9999 7.05901 20.9999H13.5591V15.5H11.0591V11H13.5591V8.99992C13.5625 6.23998 15.799 4.00335 18.5591 4.00005H21.059V8.50004H18.5591C18.283 8.50004 18.059 8.7238 18.059 8.99992V11H21.4089L20.259 15.5H18.059V20.9999Z" fill="white"/>
<path d="M18.059 20.9999H22.059C22.8875 20.9999 23.559 20.3284 23.559 19.4999V4.49993C23.559 3.67156 22.8875 2.99994 22.059 2.99994H7.05901C6.23065 2.99994 5.55902 3.67156 5.55902 4.49993V19.4999C5.55902 20.3284 6.23065 20.9999 7.05901 20.9999H13.5591V15.5H11.0591V11H13.5591V8.99992C13.5625 6.23998 15.799 4.00335 18.5591 4.00005H21.059V8.50004H18.5591C18.283 8.50004 18.059 8.7238 18.059 8.99992V11H21.4089L20.259 15.5H18.059V20.9999Z" fill="white"/>
</svg>
