<svg width="20" height="21" viewBox="0 0 20 21" fill="none" xmlns="http://www.w3.org/2000/svg">
<path d="M7.00418 4.30391L12.9956 4.30391C12.9957 4.30391 12.9958 4.30391 12.9958 4.30391C14.7634 4.30406 16.1961 5.73666 16.1961 7.50418V13.4956C16.1961 15.2632 14.7632 16.6961 12.9956 16.6961H7.00446C5.23678 16.6961 3.80391 15.2635 3.80391 13.4958L3.80391 7.50418C3.80391 5.7368 5.23655 4.30391 7.00418 4.30391Z" stroke="#020105" stroke-width="0.6"/>
<path d="M12.9958 4.00391L7.00418 4.00391C5.07085 4.00391 3.50391 5.57113 3.50391 7.50418L3.50391 13.4958C3.50391 15.4292 5.07113 16.9961 7.00446 16.9961H12.9956C14.9289 16.9961 16.4961 15.4289 16.4961 13.4956V7.50418C16.4961 5.57085 14.9289 4.00391 12.9956 4.00391H12.9958Z" stroke="#020105" stroke-width="0.2" stroke-miterlimit="10"/>
<path d="M9.99988 13.636C11.7319 13.636 13.136 12.2319 13.136 10.4999C13.136 8.76785 11.7319 7.36377 9.99988 7.36377C8.26785 7.36377 6.86377 8.76785 6.86377 10.4999C6.86377 12.2319 8.26785 13.636 9.99988 13.636Z" stroke="#020105" stroke-width="0.6" stroke-miterlimit="10"/>
<path d="M13.8082 7.36391C14.1793 7.36391 14.4801 7.06307 14.4801 6.69196C14.4801 6.32086 14.1793 6.02002 13.8082 6.02002C13.4371 6.02002 13.1362 6.32086 13.1362 6.69196C13.1362 7.06307 13.4371 7.36391 13.8082 7.36391Z" fill="#020105"/>
</svg>
