<svg width="39" height="39" viewBox="0 0 39 39" fill="none" xmlns="http://www.w3.org/2000/svg">
<rect opacity="0.2" x="-0.00390625" width="38.9082" height="38.9082" rx="19.4541" fill="#0B8297"/>
<path d="M20.4219 15.1299C22.8377 15.1299 24.8317 17.1239 24.8317 19.5398C24.8317 21.994 22.8377 23.9496 20.4219 23.9496C17.9677 23.9496 16.012 21.994 16.012 19.5398C16.012 17.1239 17.9677 15.1299 20.4219 15.1299ZM20.4219 22.4158C21.9941 22.4158 23.2595 21.1503 23.2595 19.5398C23.2595 17.9676 21.9941 16.7021 20.4219 16.7021C18.8113 16.7021 17.5459 17.9676 17.5459 19.5398C17.5459 21.1503 18.8497 22.4158 20.4219 22.4158ZM26.0205 14.9765C26.0205 15.5517 25.5603 16.0119 24.9851 16.0119C24.4099 16.0119 23.9498 15.5517 23.9498 14.9765C23.9498 14.4013 24.4099 13.9412 24.9851 13.9412C25.5603 13.9412 26.0205 14.4013 26.0205 14.9765ZM28.9348 16.0119C29.0115 17.4307 29.0115 21.6872 28.9348 23.106C28.8581 24.4865 28.5514 25.6752 27.5544 26.7106C26.5573 27.7076 25.3303 28.0144 23.9498 28.0911C22.5309 28.1678 18.2745 28.1678 16.8556 28.0911C15.4752 28.0144 14.2864 27.7076 13.251 26.7106C12.254 25.6752 11.9473 24.4865 11.8706 23.106C11.7939 21.6872 11.7939 17.4307 11.8706 16.0119C11.9473 14.6314 12.254 13.4043 13.251 12.4073C14.2864 11.4103 15.4752 11.1035 16.8556 11.0268C18.2745 10.9501 22.5309 10.9501 23.9498 11.0268C25.3303 11.1035 26.5573 11.4103 27.5544 12.4073C28.5514 13.4043 28.8581 14.6314 28.9348 16.0119ZM27.0942 24.6015C27.5544 23.4895 27.4393 20.8052 27.4393 19.5398C27.4393 18.3127 27.5544 15.6284 27.0942 14.478C26.7874 13.7494 26.2122 13.1359 25.4836 12.8675C24.3332 12.4073 21.649 12.5223 20.4219 12.5223C19.1564 12.5223 16.4722 12.4073 15.3601 12.8675C14.5932 13.1742 14.018 13.7494 13.7112 14.478C13.251 15.6284 13.3661 18.3127 13.3661 19.5398C13.3661 20.8052 13.251 23.4895 13.7112 24.6015C14.018 25.3685 14.5932 25.9437 15.3601 26.2504C16.4722 26.7106 19.1564 26.5956 20.4219 26.5956C21.649 26.5956 24.3332 26.7106 25.4836 26.2504C26.2122 25.9437 26.8258 25.3685 27.0942 24.6015Z" fill="#0B8297"/>
</svg>
