<svg width="24" height="21" viewBox="0 0 24 21" fill="none" xmlns="http://www.w3.org/2000/svg">
<path d="M8.5842 17.6782L8.58344 17.6776L8.58033 17.6749L8.57958 17.6743L8.57567 17.6711C6.36353 15.8411 4.44357 14.2529 3.10595 12.6862L3.18201 12.6212L3.10595 12.6862C1.60614 10.9294 0.9 9.25388 0.9 7.41811C0.9 5.63976 1.52832 3.99558 2.67276 2.79053L2.67276 2.79053C3.83106 1.57102 5.42019 0.9 7.14587 0.9C8.43764 0.9 9.62169 1.29688 10.6625 2.07832L10.6626 2.07833C11.1541 2.44742 11.6019 2.89341 12 3.40935C12.3983 2.89342 12.8459 2.44742 13.3376 2.07832C14.3785 1.29688 15.5625 0.9 16.8543 0.9C18.5798 0.9 20.1691 1.57102 21.3274 2.79053C22.4718 3.99559 23.1 5.63977 23.1 7.41811C23.1 9.25388 22.394 10.9293 20.8942 12.686C19.557 14.2524 17.6378 15.8401 15.4268 17.6693L15.4203 17.6746L15.4203 17.6746C14.663 18.3009 13.8053 19.0106 12.9151 19.7663L8.5842 17.6782ZM8.5842 17.6782C9.3402 18.3035 10.1966 19.0121 11.0847 19.766M8.5842 17.6782L11.0847 19.766M11.0847 19.766C11.3384 19.9816 11.6634 20.1 12 20.1M11.0847 19.766L12 20.1M12 20.1C12.3364 20.1 12.6615 19.9817 12.915 19.7663L12 20.1ZM4.2502 11.7581L4.17415 11.823L4.2502 11.7581C2.95661 10.2429 2.38856 8.90658 2.38856 7.41811C2.38856 6.00141 2.87913 4.70907 3.7651 3.77617C4.63769 2.85757 5.83746 2.351 7.14587 2.351C8.10161 2.351 8.97842 2.64554 9.7541 3.22777C10.4471 3.74801 10.9314 4.40729 11.2161 4.87054L11.2161 4.87056C11.3831 5.14221 11.6769 5.30352 12 5.30352C12.3231 5.30352 12.6169 5.14221 12.7839 4.87056L12.6987 4.81818L12.7839 4.87056C13.0688 4.40729 13.5531 3.748 14.2459 3.22775C15.0216 2.64553 15.8984 2.351 16.8543 2.351C18.1625 2.351 19.3625 2.85758 20.2349 3.77617C21.1209 4.70907 21.6114 6.00141 21.6114 7.41811C21.6114 8.90658 21.0434 10.2429 19.75 11.7581C18.4965 13.2263 16.6299 14.7707 14.457 16.5685C13.7149 17.1821 12.876 17.8762 11.9983 18.6175C11.1257 17.8777 10.2881 17.1847 9.54756 16.5721L9.5467 16.5714L9.54352 16.5688C9.54338 16.5687 9.54324 16.5686 9.5431 16.5684C7.37021 14.7709 5.50358 13.2263 4.2502 11.7581Z" fill="white" stroke="black" stroke-width="0.2"/>
</svg>
