<svg width="20" height="21" viewBox="0 0 20 21" fill="none" xmlns="http://www.w3.org/2000/svg">
<path d="M17.0126 4.03345C17.4876 4.03345 17.8459 4.45011 17.6542 5.22511L15.3292 16.1834C15.1667 16.9626 14.6959 17.1501 14.0459 16.7876L8.50008 12.6918C8.47857 12.6764 8.46105 12.656 8.44896 12.6325C8.43688 12.6089 8.43057 12.5828 8.43057 12.5564C8.43057 12.5299 8.43688 12.5038 8.44896 12.4803C8.46105 12.4567 8.47857 12.4364 8.50008 12.4209L14.9042 6.63761C15.1959 6.37928 14.8417 6.25428 14.4584 6.48761L6.42091 11.5584C6.39654 11.5743 6.36886 11.5845 6.33998 11.5881C6.3111 11.5917 6.28178 11.5887 6.25424 11.5793L2.84174 10.5001C2.08341 10.2793 2.08341 9.75845 3.01258 9.38761L16.6667 4.12095C16.775 4.069 16.8926 4.03925 17.0126 4.03345V4.03345Z" stroke="#020105" stroke-width="0.6" stroke-linecap="round" stroke-linejoin="round"/>
</svg>
