<svg width="40" height="39" viewBox="0 0 40 39" fill="none" xmlns="http://www.w3.org/2000/svg">
<rect opacity="0.2" x="0.5" width="38.9082" height="38.9082" rx="19.4541" fill="#0B8297"/>
<path d="M25.9358 15.7361C25.9358 15.9092 25.9358 16.0476 25.9358 16.2207C25.9358 21.0314 22.3019 26.5342 15.6223 26.5342C13.5457 26.5342 11.6422 25.9459 10.0502 24.9076C10.3271 24.9422 10.6039 24.9768 10.9154 24.9768C12.6113 24.9768 14.1687 24.3884 15.4146 23.4194C13.8226 23.3848 12.4728 22.3465 12.0229 20.8929C12.2652 20.9275 12.4728 20.9621 12.7151 20.9621C13.0266 20.9621 13.3727 20.8929 13.6496 20.8237C11.9883 20.4776 10.7424 19.024 10.7424 17.2589V17.2243C11.2269 17.5012 11.8153 17.6396 12.4036 17.6743C11.4 17.0167 10.777 15.9092 10.777 14.6633C10.777 13.9711 10.95 13.3481 11.2615 12.829C13.0612 15.0093 15.7607 16.4629 18.7717 16.636C18.7025 16.3591 18.6679 16.0822 18.6679 15.8054C18.6679 13.798 20.2945 12.1714 22.3019 12.1714C23.3401 12.1714 24.2746 12.5867 24.9668 13.3135C25.7628 13.1404 26.5588 12.829 27.251 12.4137C26.9741 13.2789 26.4204 13.9711 25.659 14.421C26.3857 14.3518 27.1125 14.1441 27.7355 13.8672C27.251 14.594 26.628 15.217 25.9358 15.7361Z" fill="#0B8297"/>
</svg>
