<?xml version="1.0" encoding="UTF-8" standalone="no"?>
<!-- Created with Inkscape (http://www.inkscape.org/) -->

<svg
   xmlns:dc="http://purl.org/dc/elements/1.1/"
   xmlns:cc="http://creativecommons.org/ns#"
   xmlns:rdf="http://www.w3.org/1999/02/22-rdf-syntax-ns#"
   xmlns:svg="http://www.w3.org/2000/svg"
   xmlns="http://www.w3.org/2000/svg"
   xmlns:sodipodi="http://sodipodi.sourceforge.net/DTD/sodipodi-0.dtd"
   xmlns:inkscape="http://www.inkscape.org/namespaces/inkscape"
   version="1.1"
   id="svg2"
   xml:space="preserve"
   width="3432.2727"
   height="797.4928"
   viewBox="0 0 3432.2727 797.49278"
   sodipodi:docname="Logo PureClean Color.svg"
   inkscape:version="0.92.3 (2405546, 2018-03-11)"><metadata
     id="metadata8"><rdf:RDF><cc:Work
         rdf:about=""><dc:format>image/svg+xml</dc:format><dc:type
           rdf:resource="http://purl.org/dc/dcmitype/StillImage" /><dc:title></dc:title></cc:Work></rdf:RDF></metadata><defs
     id="defs6" /><sodipodi:namedview
     pagecolor="#ffffff"
     bordercolor="#666666"
     borderopacity="1"
     objecttolerance="10"
     gridtolerance="10"
     guidetolerance="10"
     inkscape:pageopacity="0"
     inkscape:pageshadow="2"
     inkscape:window-width="1920"
     inkscape:window-height="1017"
     id="namedview4"
     showgrid="false"
     fit-margin-top="0"
     fit-margin-left="0"
     fit-margin-right="0"
     fit-margin-bottom="0"
     inkscape:zoom="0.19135134"
     inkscape:cx="2730.0607"
     inkscape:cy="684.70009"
     inkscape:window-x="2552"
     inkscape:window-y="-8"
     inkscape:window-maximized="1"
     inkscape:current-layer="g10" /><g
     id="g10"
     inkscape:groupmode="layer"
     inkscape:label="ink_ext_XXXXXX"
     transform="matrix(1.3333333,0,0,-1.3333333,-117.19336,1632.0794)"><path
       style="fill:#30c7b5;fill-opacity:1;fill-rule:nonzero;stroke:none;stroke-width:0.09999999"
       d="m 272.11963,1065.1295 c -19.11399,0 -37.11141,-2.8401 -53.98242,-8.5401 -16.872,-5.6899 -32.22408,-17.4901 -46.05908,-35.3701 l -5.49023,38.4214 H 87.895022 V 625.93999 h 88.451668 v 168.95948 c 13.023,-15.84997 28.05962,-26.92995 45.14062,-33.22995 17.083,-6.32002 33.55104,-9.45997 49.41504,-9.45997 21.956,0 42.17794,3.5502 60.68995,10.68015 18.49599,7.11 34.36412,17.49015 47.57812,31.1001 13.219,13.62 23.47488,30.10065 30.79688,49.41067 7.32499,19.32503 10.979,41.1702 10.979,65.5752 0,23.58196 -3.54724,44.93288 -10.67725,64.04588 -7.11399,19.11203 -17.27965,35.46865 -30.49365,49.09865 -13.219,13.62 -28.98112,24.2 -47.26612,31.73 -18.3,7.52 -38.43364,11.2793 -60.38965,11.2793 z m -13.42821,-78.69292 c 11.80699,0 22.2701,-2.02935 31.41211,-6.08933 9.15699,-4.077 16.88894,-9.56677 23.18994,-16.46775 6.30099,-6.918 11.0841,-15.05182 14.3291,-24.40582 3.249,-9.354 4.88671,-19.52003 4.88671,-30.49801 0,-22.78102 -6.61452,-41.3829 -19.83252,-55.81785 -13.21899,-14.43802 -31.20335,-21.65775 -53.98534,-21.65775 -10.16601,0 -20.12043,1.62968 -29.87843,4.88963 -9.762,3.25005 -18.40527,8.12085 -25.92627,14.63377 -7.53299,6.51 -13.62329,14.6478 -18.30029,24.40583 -4.677,9.75795 -7.02393,20.93137 -7.02393,33.54637 0,14.22698 2.34693,26.33161 7.02393,36.28561 4.677,9.97005 10.87205,18.0024 18.60205,24.10845 7.729,6.08895 16.4681,10.46377 26.2251,13.1118 9.758,2.634 19.52083,3.95505 29.27784,3.95505 z"
       id="path18"
       inkscape:connector-curvature="0" /><path
       style="fill:#30c7b5;fill-opacity:1;fill-rule:nonzero;stroke:none;stroke-width:0.09999999"
       d="m 1181.6206,1068.1807 c -24.39,0 -46.4501,-3.8613 -66.1801,-11.5913 -19.72,-7.7299 -36.5004,-18.39 -50.3203,-32.02 -13.83,-13.62 -24.5103,-29.99982 -32.0303,-49.11177 -7.52,-19.11203 -11.2793,-40.04325 -11.2793,-62.82428 0,-23.98598 3.659,-45.85298 10.979,-65.58398 7.32,-19.71 18.2008,-36.5889 32.6308,-50.60887 14.4401,-14.03003 32.1199,-24.92085 53.0699,-32.63085 20.9499,-7.73003 45.0398,-11.6001 72.2798,-11.6001 22.77,0 45.9605,3.46087 69.5405,10.36087 23.59,6.91995 43.52,18.29888 59.77,34.16888 l -49.3901,54.9024 c -10.5801,-9.351 -23.2802,-15.65138 -38.1402,-18.92138 -14.84,-3.24 -28.1504,-4.87065 -39.9404,-4.87065 -24.81,0 -44.1295,5.19083 -57.9595,15.5508 -13.82,10.37303 -21.7503,22.87058 -23.7802,37.51755 h 221.4199 c 4.87,30.90203 4.5803,58.04528 -0.9097,81.42631 -5.49,23.385 -15.0602,42.90567 -28.6802,58.55567 -13.62,15.66 -30.8002,27.4606 -51.5302,35.3906 -20.76,7.92 -43.9294,11.8901 -69.5494,11.8901 z m 0,-75.02337 c 8.9501,0 17.6998,-1.02375 26.2398,-3.05273 8.54,-2.02905 16.1591,-4.98892 22.8692,-8.8389 6.7099,-3.86497 12.0903,-8.86117 16.1703,-14.9502 4.05,-6.105 6.2902,-13.21905 6.7002,-21.35302 h -142.7299 c 4.4599,15.05197 12.9196,26.8428 25.3095,35.38477 12.4,8.54198 27.5609,12.81008 45.4409,12.81008 z"
       id="path886"
       inkscape:connector-curvature="0" /><path
       style="fill:#30c7b5;fill-opacity:1;fill-rule:nonzero;stroke:none;stroke-width:0.1"
       d="m 871.425,1059.64 6.706,-32.94 c 10.166,14.23 21.866,24.5 35.082,30.81 13.217,6.29 28.363,9.45 45.442,9.45 28.466,0 53.065,-9.16 73.805,-27.46 l -36.601,-69.531 c -14.227,10.166 -30.301,15.247 -48.194,15.247 -9.354,0 -18.288,-1.518 -26.83,-4.571 -8.537,-3.052 -16.074,-7.518 -22.568,-13.411 -6.513,-5.909 -11.594,-13.129 -15.247,-21.654 -3.673,-8.542 -5.489,-18.512 -5.489,-29.894 V 758.92 h -87.85 v 300.72 z"
       id="path882"
       inkscape:connector-curvature="0" /><path
       style="fill:#30c7b5;fill-opacity:1;fill-rule:nonzero;stroke:none;stroke-width:0.1"
       d="M 535.579,1060.26 V 901.039 c 0,-46.751 20.735,-70.139 62.224,-70.139 10.166,0 19.414,1.93 27.744,5.79 8.346,3.87 15.561,9.25 21.655,16.166 6.105,6.917 10.782,14.843 14.026,23.789 3.266,8.95 4.889,18.304 4.889,28.062 v 155.553 h 86.615 V 758.92 h -79.293 l -3.053,39.65 c -13.426,-18.3 -28.466,-30.6 -45.141,-36.9 -16.676,-6.32 -34.152,-9.26 -52.452,-8.86 -17.083,0 -33.143,2.25 -48.193,6.73 -15.039,4.46 -28.36,12.19 -39.955,23.17 -11.593,10.97 -20.736,26.03 -27.445,45.14 -6.706,19.11 -10.072,43.31 -10.072,72.588 v 159.822 z"
       id="path880"
       inkscape:connector-curvature="0" /><path
       inkscape:connector-curvature="0"
       style="fill:#30c7b5;fill-opacity:1;fill-rule:nonzero;stroke:none;stroke-width:0.16331901"
       d="m 1348.5397,997.80233 c 0,62.48097 50.6501,113.13107 113.1196,113.13107 -62.4695,0 -113.1196,50.6452 -113.1196,113.1262 0,-62.481 -50.6599,-113.1262 -113.1295,-113.1262 62.4696,0 113.1295,-50.6501 113.1295,-113.13107 z"
       id="path847" /><path
       style="fill:#30c7b5;fill-opacity:1;fill-rule:nonzero;stroke:none;stroke-width:0.16331901"
       d="m 1626.5005,799.78947 c -16.2699,-16.26983 -33.8512,-28.05983 -52.7602,-35.37979 -18.9108,-7.32976 -38.7295,-10.97994 -59.4808,-10.97994 -21.55,0 -41.8799,3.46073 -60.9899,10.38056 -19.1099,6.90023 -35.7897,16.97048 -50.0197,30.17972 -14.23,13.22067 -25.5104,29.49051 -33.8593,48.80951 -8.3309,19.30431 -12.4906,41.57612 -12.4906,66.78114 0,25.21646 4.0503,47.48664 12.1901,66.79584 8.13,19.3239 19.3206,35.57909 33.5506,48.79809 14.2398,13.2141 30.9,23.2746 50.0099,30.1928 19.11,6.9182 39.6588,10.3773 61.6089,10.3773 20.7513,0 40.1699,-3.6682 58.2608,-10.9783 18.099,-7.3216 35.0792,-18.7082 50.9294,-34.1664 l -31.7199,-32.94631 c -10.57,10.5847 -22.569,18.30311 -35.9791,23.18801 -13.4314,4.8718 -26.8399,7.3249 -40.2712,7.3249 -15.0401,0 -29.0692,-2.4531 -42.0792,-7.3249 -13.0198,-4.8849 -24.3998,-11.99903 -34.1598,-21.35231 -9.7599,-9.35491 -17.4914,-20.73824 -23.17,-34.15163 -5.7015,-13.42646 -8.54,-28.67392 -8.54,-45.75709 0,-17.4882 2.8385,-33.03616 8.54,-46.66514 5.6786,-13.6257 13.4101,-25.00577 23.17,-34.1451 9.76,-9.16056 21.14,-16.08039 34.1598,-20.75131 13.01,-4.67909 26.8301,-7.00965 41.4798,-7.00965 14.2202,0 28.2607,2.54124 42.0889,7.62046 13.8217,5.08086 26.0314,13.11942 36.6014,24.08955 l 33.549,-33.54898 z"
       id="path849"
       inkscape:connector-curvature="0" /><path
       style="fill:#30c7b5;fill-opacity:1;fill-rule:nonzero;stroke:none;stroke-width:0.16331901"
       d="m 2378.4473,1060.8565 h 45.7619 l 2.4335,-48.1791 c 13.0002,18.2999 28.3685,31.6088 46.0396,39.9544 17.7038,8.3309 36.7141,12.4972 57.0474,12.4972 19.1083,0 36.6977,-3.1439 52.7683,-9.4595 16.0543,-6.3008 29.9854,-15.3373 41.777,-27.1452 11.7917,-11.79 21.0518,-26.4201 27.7479,-43.90835 6.7124,-17.48819 10.0768,-37.2155 10.0768,-59.17374 V 758.92053 h -50.0246 V 924.8265 c 0,29.2782 -8.019,52.25555 -24.0896,68.93205 -16.0706,16.67815 -38.5269,25.00905 -67.4017,25.00905 -13.8331,0 -26.4414,-2.649 -37.8084,-7.9259 -11.3996,-5.2931 -21.1498,-12.30117 -29.2831,-21.05017 -8.1332,-8.7392 -14.4374,-19.11649 -18.9286,-31.0992 -4.4586,-12.00231 -6.6961,-24.7069 -6.6961,-38.13335 V 758.92053 h -49.4203 v 301.33497 z"
       id="path845"
       inkscape:connector-curvature="0" /><path
       style="fill:#30c7b5;fill-opacity:1;fill-rule:nonzero;stroke:none;stroke-width:0.16331901"
       d="m 2184.5875,1065.1295 c -21.5581,0 -41.6952,-3.462 -60.4116,-10.3638 -18.7001,-6.9166 -35.0488,-17.0831 -49.0943,-30.5112 -14.0291,-13.4134 -25.1011,-29.79112 -33.2344,-49.09867 -8.1495,-19.3206 -12.2007,-41.17043 -12.2007,-65.57521 0,-24.3933 3.9529,-46.36147 11.8902,-65.88135 7.921,-19.51987 18.814,-36.08865 32.6308,-49.70947 13.8168,-13.60935 30.1983,-24.0993 49.0943,-31.42088 18.9124,-7.30852 39.1464,-10.98045 60.7046,-10.98045 10.1748,0 20.6284,1.22258 31.4238,3.67238 10.7627,2.43997 21.0351,6.20002 30.7852,11.27925 9.7665,5.0907 18.8143,11.38927 27.1435,18.91995 8.3456,7.52085 15.5645,16.57057 21.6563,27.14062 l 1.2246,-54.8994 1.2084,1.21875 h 48.1949 v 301.33588 h -48.7984 l -0.6049,-54.9038 c -10.975,19.52 -26.6373,34.3622 -46.9542,44.524 -20.3494,10.1665 -41.9079,15.2534 -64.6581,15.2534 z m 6.353,-47.5738 c 22.3733,-0.2835 41.0989,-5.5656 56.165,-15.873 16.0544,-10.97832 28.157,-24.6008 36.274,-40.856 8.1333,-16.2714 12.2153,-33.95527 12.2153,-53.06685 0,-19.11323 -4.082,-36.8118 -12.2153,-53.06693 -8.117,-16.27305 -20.3165,-29.89207 -36.5831,-40.87207 -16.2666,-10.97993 -36.4041,-16.47068 -60.3793,-16.47068 -15.0581,0 -29.0874,2.64075 -42.104,7.93065 -13.0165,5.28008 -24.3996,12.7086 -34.1661,22.24808 -9.75,9.57045 -17.4918,21.1614 -23.1753,34.7871 -5.6997,13.6224 -8.5254,28.7673 -8.5254,45.44385 0,16.66013 2.8257,31.82138 8.5254,45.44385 5.6835,13.6224 13.4253,25.20098 23.1753,34.76663 9.7665,9.54592 21.1496,16.87137 34.1661,21.95217 13.0166,5.0858 27.0459,7.623 42.104,7.623 1.5239,0.026 3.0319,0.029 4.5234,0.011 z"
       id="path843"
       inkscape:connector-curvature="0" /><path
       style="fill:#30c7b5;fill-opacity:1;fill-rule:nonzero;stroke:none;stroke-width:0.16331901"
       d="m 1865.0538,1066.9606 c -22.7667,0 -43.7204,-3.8629 -62.8287,-11.5929 -19.1084,-7.7298 -35.5702,-18.4971 -49.4033,-32.3319 -13.8168,-13.8185 -24.5968,-30.28265 -32.3218,-49.39752 -7.725,-19.11158 -11.5956,-40.05735 -11.5956,-62.84033 0,-23.98508 3.8706,-45.64133 11.5956,-64.95705 7.725,-19.31085 18.6018,-35.88158 32.6309,-49.72118 14.0291,-13.8201 30.8021,-24.38955 50.3188,-31.70947 19.5166,-7.32975 40.8623,-10.98053 64.0371,-10.98053 23.5997,8e-5 47.2816,4.38098 71.0773,13.11038 23.7792,8.74087 43.4104,22.269 58.8603,40.56885 h 0.6035 l -33.545,30.50242 c -4.8669,-6.11137 -11.0894,-11.49112 -18.602,-16.17187 -7.5127,-4.66928 -15.5477,-8.64008 -24.0893,-11.89013 -8.5416,-3.2598 -17.3779,-5.6997 -26.54,-7.31977 -9.146,-1.62998 -17.9973,-2.44043 -26.5225,-2.44043 -14.6499,0 -28.2713,2.14095 -40.8795,6.4101 -12.6081,4.26098 -23.7784,10.27065 -33.5449,17.98095 -9.7664,7.72995 -17.6885,17.1909 -23.7803,28.37993 -6.108,11.16937 -9.7658,23.6799 -10.9907,37.5 h 256.1983 c 2.8417,30.08985 0.9146,56.22705 -5.7979,78.39113 -6.7124,22.164 -16.9845,40.55802 -30.8012,55.20112 -13.8331,14.6351 -30.5093,25.5182 -50.0259,32.6324 -19.533,7.1109 -40.8619,10.6758 -64.0532,10.6758 z m 1.2084,-45.1407 c 29.6914,0 53.7977,-7.7304 72.3019,-23.17385 18.3765,-15.35167 28.2114,-37.5147 29.562,-66.49657 h 0.031 v -0.6006 c -0.01,0.20167 -0.021,0.3996 -0.031,0.6006 h -208.5924 c 4.4586,29.27655 16.7724,51.54907 36.9097,66.7998 20.1209,15.24752 43.4102,22.87062 69.8188,22.87062 z"
       id="path839"
       inkscape:connector-curvature="0" /><path
       style="fill:#30c7b5;fill-opacity:1;fill-rule:nonzero;stroke:none;stroke-width:0.16331901"
       d="m 1688.4408,758.92053 h -50.0083 v 426.98937 h 50.0083 V 758.92053"
       id="path22"
       inkscape:connector-curvature="0" /></g></svg>